<svg width="256" height="194" viewBox="0 0 256 194" fill="none" xmlns="http://www.w3.org/2000/svg">
<rect width="256" height="194" fill="white"/>
<path d="M95.4039 27.539C92.4056 24.5338 88.3169 22.3482 83.1379 20.9822C77.9589 19.343 73.1888 18.5234 68.8276 18.5234C60.9228 18.5234 53.6995 20.026 47.1576 23.0312C40.6158 25.7632 37.3448 30.1344 37.3448 36.1448C37.3448 40.2427 37.7537 42.9747 38.5714 44.3407C39.3892 45.9799 39.798 48.4387 39.798 51.7171C39.798 54.9955 38.4351 58.1373 35.7094 61.1425C32.9836 63.8745 29.0312 65.2405 23.8522 65.2405C17.5829 65.2405 13.2217 63.1915 10.7685 59.0935C8.58785 54.9955 7.49754 50.8975 7.49754 46.7996C7.49754 38.8768 10.6322 31.7736 16.9015 25.49C23.1708 19.2064 31.2118 14.2888 41.0246 10.7372C51.11 6.9124 61.7406 5 72.9163 5C76.1872 5 81.3662 5.5464 88.4532 6.63919C95.5402 7.45879 102.9 9.91759 110.532 14.0156C118.164 17.8404 124.433 24.3972 129.34 33.686C136.154 24.3972 144.604 17.294 154.69 12.3764C164.775 7.45879 175.678 5 187.399 5C202.936 5 215.338 7.45879 224.606 12.3764C234.146 17.294 241.097 23.0312 245.458 29.588C249.819 35.8716 252 41.3356 252 45.98C252 54.176 250.501 61.4157 247.502 67.6993C244.504 73.7097 238.916 78.7639 230.739 82.8619C222.834 86.9599 211.386 90.1017 196.394 92.2873C181.675 94.1997 162.458 95.2925 138.744 95.5657C138.744 107.86 141.197 119.607 146.103 130.808C151.01 142.01 157.552 151.162 165.729 158.265C174.179 165.368 183.447 168.92 193.532 168.92C204.708 168.92 214.112 166.598 221.744 161.953C229.376 157.309 236.19 151.435 242.187 144.332C244.095 144.605 245.731 145.561 247.094 147.2C248.729 148.566 249.819 149.796 250.365 150.889C244.368 161.817 235.782 170.969 224.606 178.345C213.703 185.448 201.437 189 187.808 189C175.542 189 165.32 187.361 157.143 184.082C148.966 180.531 142.424 176.569 137.517 172.198C132.883 167.827 129.067 164.002 126.069 160.724C124.433 158.811 122.934 158.265 121.571 159.085C120.481 159.631 118.709 161.134 116.256 163.592C106.989 173.154 97.4483 179.848 87.6355 183.673C77.8227 187.224 69.1002 189 61.468 189C54.1084 189 46.8851 188.317 39.798 186.951C32.9836 185.858 27.3957 184.082 23.0345 181.624C15.9475 177.526 10.7685 172.198 7.49754 165.641C4.49918 159.085 3 151.572 3 143.102C3 134.906 5.4532 126.984 10.3596 119.334C15.266 111.411 21.399 105.264 28.7586 100.893C37.4811 95.7023 48.5205 91.7409 61.8768 89.0089C75.5057 86.0037 91.179 83.8181 108.897 82.4521C108.624 66.3333 107.397 54.4491 105.217 46.7996C103.309 38.8768 100.038 32.4566 95.4039 27.539ZM139.153 81.2227C160.141 80.9495 176.496 79.7201 188.217 77.5345C200.21 75.3489 208.66 71.7973 213.567 66.8797C218.473 61.9621 220.926 55.4053 220.926 47.2093C220.926 40.6526 217.655 34.2324 211.113 27.9488C204.844 21.6652 196.803 18.5234 186.99 18.5234C173.089 18.5234 162.049 24.6704 153.872 36.9643C145.695 48.9851 140.788 63.7379 139.153 81.2227ZM108.897 96.7951C94.7225 97.8879 82.4565 100.074 72.0985 103.352C62.0131 106.63 53.8358 110.592 47.5665 115.236C37.4811 122.612 32.4384 131.218 32.4384 141.053C32.4384 149.796 35.1642 157.172 40.6158 163.183C46.3399 168.92 54.9261 171.788 66.3744 171.788C70.7356 171.788 75.642 170.149 81.0936 166.871C86.8177 163.592 91.9967 159.494 96.6305 154.577C101.537 149.386 104.944 144.059 106.852 138.595C107.67 134.77 108.215 129.442 108.488 122.612C108.76 115.509 108.897 106.903 108.897 96.7951Z" fill="black"/>
</svg>
